# xmcd
#
# Track frame offsets:
#	150
#	18738
#	38060
#	53843
#	72358
#	91470
#	111603
#	131483
#	151733
#	168903
#	188423
#	206923
#	224061
#	242964
#	259676
#	271293
#	288541
#	308841
#	326602
#
# Disc length: 4594 seconds
#
# Revision: 0
# Processed by: cddbd v1.5.1PL0 Copyright (c) Steve Scherf et al.
# Submitted via: dBpowerAMP V4.0
#
DISCID=2211f013
DTITLE=Snake Pletskiano - The Prescription
DYEAR=2004
DGENRE=Rap
TTITLE0=Back 2 Da Block
TTITLE1=4 My Haters
TTITLE2=Champ (Pletskiano)
TTITLE3=Mo Murda
TTITLE4=It's Called Ballin
TTITLE5=Drop It Like It's Hot
TTITLE6=Don't Waste Your Time
TTITLE7=The Prescription
TTITLE8=Just Flo
TTITLE9=Merk City
TTITLE10=Letz B Real Ft. Mastamind, E-Dog and Moebadis
TTITLE11=Oops Upside Ya Head
TTITLE12=Ain't Nuthin 2 It
TTITLE13=Serv On
TTITLE14=That Boyz A Killa
TTITLE15=G-Hop
TTITLE16=Gorilla Pimpin
TTITLE17=Destined 2 Be Heard
TTITLE18=Things Ain't The Same 4 A Gangsta
EXTD=
EXTT0=
EXTT1=
EXTT2=
EXTT3=
EXTT4=
EXTT5=
EXTT6=
EXTT7=
EXTT8=
EXTT9=
EXTT10=
EXTT11=
EXTT12=
EXTT13=
EXTT14=
EXTT15=
EXTT16=
EXTT17=
EXTT18=
PLAYORDER=
